# MagicaVoxel @ Ephtracy

# group
o 

# material
mtllib Minero-3.mtl
usemtl palette

# normals
vn -1 0 0
vn 1 0 0
vn 0 0 1
vn 0 0 -1
vn 0 -1 0
vn 0 1 0

# texcoords
vt 0.970703 0.5
vt 0.974609 0.5
vt 0.990234 0.5

# verts
v 0.2 0.1 -7.6
v 0.2 0.1 -7.7
v 0.2 0.2 -7.2
v 0.2 0.2 -7.3
v 0.2 0.2 -7.4
v 0.2 0.2 -7.5
v 0.2 0.2 -7.6
v 0.2 0.2 -7.7
v 0.2 0.2 -7.8
v 0.2 0.2 -7.9
v 0.2 0.2 -8
v 0.2 0.2 -8.1
v 0.2 0.3 -7.2
v 0.2 0.3 -7.3
v 0.2 0.3 -7.4
v 0.2 0.3 -7.5
v 0.2 0.3 -7.6
v 0.2 0.3 -7.7
v 0.2 0.3 -7.8
v 0.2 0.3 -7.9
v 0.2 0.3 -8
v 0.2 0.3 -8.1
v 0.3 0 -7.6
v 0.3 0 -7.7
v 0.3 0.1 -7.6
v 0.3 0.1 -7.7
v 0.4 0 -7.4
v 0.4 0 -7.6
v 0.4 0 -7.7
v 0.4 0 -7.9
v 0.4 0.1 -7.4
v 0.4 0.1 -7.5
v 0.4 0.1 -7.8
v 0.4 0.1 -7.9
v 0.4 0.2 -7.5
v 0.4 0.2 -7.6
v 0.4 0.2 -7.7
v 0.4 0.2 -7.8
v 0.5 0.1 -7.4
v 0.5 0.1 -7.5
v 0.5 0.1 -7.8
v 0.5 0.1 -7.9
v 0.5 0.2 -7.4
v 0.5 0.2 -7.5
v 0.5 0.2 -7.8
v 0.5 0.2 -7.9
v 0.6 0 -7.3
v 0.6 0 -7.4
v 0.6 0 -7.9
v 0.6 0 -8
v 0.6 0.1 -7.2
v 0.6 0.1 -7.3
v 0.6 0.1 -8
v 0.6 0.1 -8.1
v 0.6 0.2 -7.2
v 0.6 0.2 -7.3
v 0.6 0.2 -7.4
v 0.6 0.2 -7.9
v 0.6 0.2 -8
v 0.6 0.2 -8.1
v 0.7 0 -7.3
v 0.7 0 -7.4
v 0.7 0 -7.9
v 0.7 0 -8
v 0.7 0.1 -7.2
v 0.7 0.1 -7.3
v 0.7 0.1 -8
v 0.7 0.1 -8.1
v 0.7 0.2 -7.2
v 0.7 0.2 -7.3
v 0.7 0.2 -7.4
v 0.7 0.2 -7.9
v 0.7 0.2 -8
v 0.7 0.2 -8.1
v 0.8 0.1 -7.4
v 0.8 0.1 -7.5
v 0.8 0.1 -7.8
v 0.8 0.1 -7.9
v 0.8 0.2 -7.4
v 0.8 0.2 -7.5
v 0.8 0.2 -7.8
v 0.8 0.2 -7.9
v 0.9 0 -7.4
v 0.9 0 -7.6
v 0.9 0 -7.7
v 0.9 0 -7.9
v 0.9 0.1 -7.4
v 0.9 0.1 -7.5
v 0.9 0.1 -7.6
v 0.9 0.1 -7.8
v 0.9 0.1 -7.9
v 0.9 0.2 -7.5
v 0.9 0.2 -7.6
v 0.9 0.2 -7.7
v 0.9 0.2 -7.8
v 1 0 -7.6
v 1 0 -7.7
v 1 0.1 -7.6
v 1 0.1 -7.7
v 1.1 0.1 -7.6
v 1.1 0.1 -7.7
v 1.1 0.2 -7.2
v 1.1 0.2 -7.3
v 1.1 0.2 -7.4
v 1.1 0.2 -7.5
v 1.1 0.2 -7.6
v 1.1 0.2 -7.7
v 1.1 0.2 -7.8
v 1.1 0.2 -7.9
v 1.1 0.2 -8
v 1.1 0.2 -8.1
v 1.1 0.3 -7.2
v 1.1 0.3 -7.3
v 1.1 0.3 -7.4
v 1.1 0.3 -7.5
v 1.1 0.3 -7.6
v 1.1 0.3 -7.7
v 1.1 0.3 -7.8
v 1.1 0.3 -7.9
v 1.1 0.3 -8
v 1.1 0.3 -8.1
v 0.2 0.2 -7.2
v 0.2 0.3 -7.2
v 0.3 0.2 -7.2
v 0.3 0.3 -7.2
v 0.4 0.2 -7.2
v 0.4 0.3 -7.2
v 0.5 0.2 -7.2
v 0.5 0.3 -7.2
v 0.6 0.1 -7.2
v 0.6 0.2 -7.2
v 0.6 0.3 -7.2
v 0.7 0.1 -7.2
v 0.7 0.2 -7.2
v 0.7 0.3 -7.2
v 0.8 0.2 -7.2
v 0.8 0.3 -7.2
v 0.9 0.2 -7.2
v 0.9 0.3 -7.2
v 1 0.2 -7.2
v 1 0.3 -7.2
v 1.1 0.2 -7.2
v 1.1 0.3 -7.2
v 0.6 0 -7.3
v 0.6 0.1 -7.3
v 0.7 0 -7.3
v 0.7 0.1 -7.3
v 0.4 0 -7.4
v 0.4 0.1 -7.4
v 0.5 0.1 -7.4
v 0.5 0.2 -7.4
v 0.6 0 -7.4
v 0.6 0.2 -7.4
v 0.7 0 -7.4
v 0.7 0.2 -7.4
v 0.8 0.1 -7.4
v 0.8 0.2 -7.4
v 0.9 0 -7.4
v 0.9 0.1 -7.4
v 0.4 0.1 -7.5
v 0.4 0.2 -7.5
v 0.5 0.1 -7.5
v 0.5 0.2 -7.5
v 0.8 0.1 -7.5
v 0.8 0.2 -7.5
v 0.9 0.1 -7.5
v 0.9 0.2 -7.5
v 0.2 0.1 -7.6
v 0.2 0.2 -7.6
v 0.3 0 -7.6
v 0.3 0.1 -7.6
v 0.3 0.2 -7.6
v 0.4 0 -7.6
v 0.4 0.2 -7.6
v 0.9 0 -7.6
v 0.9 0.1 -7.6
v 0.9 0.2 -7.6
v 1 0 -7.6
v 1 0.1 -7.6
v 1 0.2 -7.6
v 1.1 0.1 -7.6
v 1.1 0.2 -7.6
v 0.2 0.1 -7.7
v 0.2 0.2 -7.7
v 0.3 0 -7.7
v 0.3 0.1 -7.7
v 0.3 0.2 -7.7
v 0.4 0 -7.7
v 0.4 0.2 -7.7
v 0.9 0 -7.7
v 0.9 0.2 -7.7
v 1 0 -7.7
v 1 0.1 -7.7
v 1 0.2 -7.7
v 1.1 0.1 -7.7
v 1.1 0.2 -7.7
v 0.4 0.1 -7.8
v 0.4 0.2 -7.8
v 0.5 0.1 -7.8
v 0.5 0.2 -7.8
v 0.8 0.1 -7.8
v 0.8 0.2 -7.8
v 0.9 0.1 -7.8
v 0.9 0.2 -7.8
v 0.4 0 -7.9
v 0.4 0.1 -7.9
v 0.5 0.1 -7.9
v 0.5 0.2 -7.9
v 0.6 0 -7.9
v 0.6 0.2 -7.9
v 0.7 0 -7.9
v 0.7 0.2 -7.9
v 0.8 0.1 -7.9
v 0.8 0.2 -7.9
v 0.9 0 -7.9
v 0.9 0.1 -7.9
v 0.6 0 -8
v 0.6 0.1 -8
v 0.7 0 -8
v 0.7 0.1 -8
v 0.2 0.2 -8.1
v 0.2 0.3 -8.1
v 0.3 0.2 -8.1
v 0.3 0.3 -8.1
v 0.4 0.2 -8.1
v 0.4 0.3 -8.1
v 0.5 0.2 -8.1
v 0.5 0.3 -8.1
v 0.6 0.1 -8.1
v 0.6 0.2 -8.1
v 0.6 0.3 -8.1
v 0.7 0.1 -8.1
v 0.7 0.2 -8.1
v 0.7 0.3 -8.1
v 0.8 0.2 -8.1
v 0.8 0.3 -8.1
v 0.9 0.2 -8.1
v 0.9 0.3 -8.1
v 1 0.2 -8.1
v 1 0.3 -8.1
v 1.1 0.2 -8.1
v 1.1 0.3 -8.1
v 0.6 0 -7.3
v 0.7 0 -7.3
v 0.4 0 -7.4
v 0.6 0 -7.4
v 0.7 0 -7.4
v 0.9 0 -7.4
v 0.3 0 -7.6
v 0.4 0 -7.6
v 0.9 0 -7.6
v 1 0 -7.6
v 0.3 0 -7.7
v 0.4 0 -7.7
v 0.9 0 -7.7
v 1 0 -7.7
v 0.4 0 -7.9
v 0.6 0 -7.9
v 0.7 0 -7.9
v 0.9 0 -7.9
v 0.6 0 -8
v 0.7 0 -8
v 0.6 0.1 -7.2
v 0.7 0.1 -7.2
v 0.6 0.1 -7.3
v 0.7 0.1 -7.3
v 0.2 0.1 -7.6
v 0.3 0.1 -7.6
v 1 0.1 -7.6
v 1.1 0.1 -7.6
v 0.2 0.1 -7.7
v 0.3 0.1 -7.7
v 1 0.1 -7.7
v 1.1 0.1 -7.7
v 0.6 0.1 -8
v 0.7 0.1 -8
v 0.6 0.1 -8.1
v 0.7 0.1 -8.1
v 0.2 0.2 -7.2
v 0.3 0.2 -7.2
v 0.4 0.2 -7.2
v 0.5 0.2 -7.2
v 0.6 0.2 -7.2
v 0.7 0.2 -7.2
v 0.8 0.2 -7.2
v 0.9 0.2 -7.2
v 1 0.2 -7.2
v 1.1 0.2 -7.2
v 0.2 0.2 -7.3
v 0.3 0.2 -7.3
v 0.4 0.2 -7.3
v 0.5 0.2 -7.3
v 0.6 0.2 -7.3
v 0.7 0.2 -7.3
v 0.8 0.2 -7.3
v 0.9 0.2 -7.3
v 1 0.2 -7.3
v 1.1 0.2 -7.3
v 0.2 0.2 -7.4
v 0.3 0.2 -7.4
v 0.5 0.2 -7.4
v 0.6 0.2 -7.4
v 0.7 0.2 -7.4
v 0.8 0.2 -7.4
v 1 0.2 -7.4
v 1.1 0.2 -7.4
v 0.2 0.2 -7.5
v 0.3 0.2 -7.5
v 0.4 0.2 -7.5
v 0.5 0.2 -7.5
v 0.8 0.2 -7.5
v 0.9 0.2 -7.5
v 1 0.2 -7.5
v 1.1 0.2 -7.5
v 0.2 0.2 -7.6
v 0.3 0.2 -7.6
v 0.4 0.2 -7.6
v 0.9 0.2 -7.6
v 1 0.2 -7.6
v 1.1 0.2 -7.6
v 0.2 0.2 -7.7
v 0.3 0.2 -7.7
v 0.4 0.2 -7.7
v 0.9 0.2 -7.7
v 1 0.2 -7.7
v 1.1 0.2 -7.7
v 0.2 0.2 -7.8
v 0.3 0.2 -7.8
v 0.4 0.2 -7.8
v 0.5 0.2 -7.8
v 0.8 0.2 -7.8
v 0.9 0.2 -7.8
v 1 0.2 -7.8
v 1.1 0.2 -7.8
v 0.2 0.2 -7.9
v 0.3 0.2 -7.9
v 0.5 0.2 -7.9
v 0.6 0.2 -7.9
v 0.7 0.2 -7.9
v 0.8 0.2 -7.9
v 1 0.2 -7.9
v 1.1 0.2 -7.9
v 0.2 0.2 -8
v 0.3 0.2 -8
v 0.4 0.2 -8
v 0.5 0.2 -8
v 0.6 0.2 -8
v 0.7 0.2 -8
v 0.8 0.2 -8
v 0.9 0.2 -8
v 1 0.2 -8
v 1.1 0.2 -8
v 0.2 0.2 -8.1
v 0.3 0.2 -8.1
v 0.4 0.2 -8.1
v 0.5 0.2 -8.1
v 0.6 0.2 -8.1
v 0.7 0.2 -8.1
v 0.8 0.2 -8.1
v 0.9 0.2 -8.1
v 1 0.2 -8.1
v 1.1 0.2 -8.1
v 0.4 0.1 -7.4
v 0.5 0.1 -7.4
v 0.8 0.1 -7.4
v 0.9 0.1 -7.4
v 0.4 0.1 -7.5
v 0.5 0.1 -7.5
v 0.8 0.1 -7.5
v 0.9 0.1 -7.5
v 0.4 0.1 -7.8
v 0.5 0.1 -7.8
v 0.8 0.1 -7.8
v 0.9 0.1 -7.8
v 0.4 0.1 -7.9
v 0.5 0.1 -7.9
v 0.8 0.1 -7.9
v 0.9 0.1 -7.9
v 0.2 0.3 -7.2
v 0.3 0.3 -7.2
v 0.4 0.3 -7.2
v 0.5 0.3 -7.2
v 0.6 0.3 -7.2
v 0.7 0.3 -7.2
v 0.8 0.3 -7.2
v 0.9 0.3 -7.2
v 1 0.3 -7.2
v 1.1 0.3 -7.2
v 0.2 0.3 -7.3
v 0.3 0.3 -7.3
v 0.4 0.3 -7.3
v 0.5 0.3 -7.3
v 0.6 0.3 -7.3
v 0.7 0.3 -7.3
v 0.8 0.3 -7.3
v 0.9 0.3 -7.3
v 1 0.3 -7.3
v 1.1 0.3 -7.3
v 0.2 0.3 -7.4
v 0.3 0.3 -7.4
v 1 0.3 -7.4
v 1.1 0.3 -7.4
v 0.2 0.3 -7.5
v 0.3 0.3 -7.5
v 1 0.3 -7.5
v 1.1 0.3 -7.5
v 0.2 0.3 -7.6
v 0.3 0.3 -7.6
v 1 0.3 -7.6
v 1.1 0.3 -7.6
v 0.2 0.3 -7.7
v 0.3 0.3 -7.7
v 1 0.3 -7.7
v 1.1 0.3 -7.7
v 0.2 0.3 -7.8
v 0.3 0.3 -7.8
v 1 0.3 -7.8
v 1.1 0.3 -7.8
v 0.2 0.3 -7.9
v 0.3 0.3 -7.9
v 1 0.3 -7.9
v 1.1 0.3 -7.9
v 0.2 0.3 -8
v 0.3 0.3 -8
v 0.4 0.3 -8
v 0.5 0.3 -8
v 0.6 0.3 -8
v 0.7 0.3 -8
v 0.8 0.3 -8
v 0.9 0.3 -8
v 1 0.3 -8
v 1.1 0.3 -8
v 0.2 0.3 -8.1
v 0.3 0.3 -8.1
v 0.4 0.3 -8.1
v 0.5 0.3 -8.1
v 0.6 0.3 -8.1
v 0.7 0.3 -8.1
v 0.8 0.3 -8.1
v 0.9 0.3 -8.1
v 1 0.3 -8.1
v 1.1 0.3 -8.1

# faces
f 7/2/1 2/2/1 1/2/1
f 8/2/1 2/2/1 7/2/1
f 13/1/1 4/1/1 3/1/1
f 14/2/1 5/2/1 4/2/1
f 14/1/1 4/1/1 13/1/1
f 15/1/1 6/1/1 5/1/1
f 15/2/1 5/2/1 14/2/1
f 16/2/1 7/2/1 6/2/1
f 16/1/1 6/1/1 15/1/1
f 17/1/1 8/1/1 7/1/1
f 17/2/1 7/2/1 16/2/1
f 18/2/1 9/2/1 8/2/1
f 18/1/1 8/1/1 17/1/1
f 19/1/1 10/1/1 9/1/1
f 19/2/1 9/2/1 18/2/1
f 20/2/1 11/2/1 10/2/1
f 20/1/1 10/1/1 19/1/1
f 21/1/1 12/1/1 11/1/1
f 21/2/1 11/2/1 20/2/1
f 22/1/1 12/1/1 21/1/1
f 25/3/1 24/3/1 23/3/1
f 26/3/1 24/3/1 25/3/1
f 31/3/1 28/3/1 27/3/1
f 32/3/1 28/3/1 31/3/1
f 33/3/1 30/3/1 29/3/1
f 34/3/1 30/3/1 33/3/1
f 35/3/1 28/3/1 32/3/1
f 36/3/1 28/3/1 35/3/1
f 37/3/1 33/3/1 29/3/1
f 38/3/1 33/3/1 37/3/1
f 43/3/1 40/3/1 39/3/1
f 44/3/1 40/3/1 43/3/1
f 45/3/1 42/3/1 41/3/1
f 46/3/1 42/3/1 45/3/1
f 52/3/1 48/3/1 47/3/1
f 53/3/1 50/3/1 49/3/1
f 55/2/1 52/2/1 51/2/1
f 56/3/1 48/3/1 52/3/1
f 56/2/1 52/2/1 55/2/1
f 57/3/1 48/3/1 56/3/1
f 58/3/1 53/3/1 49/3/1
f 59/2/1 54/2/1 53/2/1
f 59/3/1 53/3/1 58/3/1
f 60/2/1 54/2/1 59/2/1
f 61/3/2 62/3/2 66/3/2
f 63/3/2 64/3/2 67/3/2
f 65/2/2 66/2/2 69/2/2
f 66/3/2 62/3/2 70/3/2
f 69/2/2 66/2/2 70/2/2
f 70/3/2 62/3/2 71/3/2
f 63/3/2 67/3/2 72/3/2
f 67/2/2 68/2/2 73/2/2
f 72/3/2 67/3/2 73/3/2
f 73/2/2 68/2/2 74/2/2
f 75/3/2 76/3/2 79/3/2
f 79/3/2 76/3/2 80/3/2
f 77/3/2 78/3/2 81/3/2
f 81/3/2 78/3/2 82/3/2
f 83/3/2 84/3/2 87/3/2
f 87/3/2 84/3/2 88/3/2
f 88/3/2 84/3/2 89/3/2
f 85/3/2 86/3/2 90/3/2
f 90/3/2 86/3/2 91/3/2
f 88/1/2 89/1/2 92/1/2
f 92/1/2 89/1/2 93/1/2
f 85/3/2 90/3/2 94/3/2
f 94/3/2 90/3/2 95/3/2
f 96/3/2 97/3/2 98/3/2
f 98/3/2 97/3/2 99/3/2
f 100/2/2 101/2/2 106/2/2
f 106/2/2 101/2/2 107/2/2
f 102/1/2 103/1/2 112/1/2
f 103/2/2 104/2/2 113/2/2
f 112/1/2 103/1/2 113/1/2
f 104/1/2 105/1/2 114/1/2
f 113/2/2 104/2/2 114/2/2
f 105/2/2 106/2/2 115/2/2
f 114/1/2 105/1/2 115/1/2
f 106/1/2 107/1/2 116/1/2
f 115/2/2 106/2/2 116/2/2
f 107/2/2 108/2/2 117/2/2
f 116/1/2 107/1/2 117/1/2
f 108/1/2 109/1/2 118/1/2
f 117/2/2 108/2/2 118/2/2
f 109/2/2 110/2/2 119/2/2
f 118/1/2 109/1/2 119/1/2
f 110/1/2 111/1/2 120/1/2
f 119/2/2 110/2/2 120/2/2
f 120/1/2 111/1/2 121/1/2
f 124/1/3 123/1/3 122/1/3
f 125/1/3 123/1/3 124/1/3
f 126/2/3 125/2/3 124/2/3
f 127/2/3 125/2/3 126/2/3
f 128/1/3 127/1/3 126/1/3
f 129/1/3 127/1/3 128/1/3
f 131/2/3 129/2/3 128/2/3
f 132/2/3 129/2/3 131/2/3
f 133/2/3 131/2/3 130/2/3
f 134/1/3 132/1/3 131/1/3
f 134/2/3 131/2/3 133/2/3
f 135/1/3 132/1/3 134/1/3
f 136/2/3 135/2/3 134/2/3
f 137/2/3 135/2/3 136/2/3
f 138/1/3 137/1/3 136/1/3
f 139/1/3 137/1/3 138/1/3
f 140/2/3 139/2/3 138/2/3
f 141/2/3 139/2/3 140/2/3
f 142/1/3 141/1/3 140/1/3
f 143/1/3 141/1/3 142/1/3
f 146/3/3 145/3/3 144/3/3
f 147/3/3 145/3/3 146/3/3
f 150/3/3 149/3/3 148/3/3
f 152/3/3 150/3/3 148/3/3
f 152/3/3 151/3/3 150/3/3
f 153/3/3 151/3/3 152/3/3
f 156/3/3 155/3/3 154/3/3
f 157/3/3 155/3/3 156/3/3
f 158/3/3 156/3/3 154/3/3
f 159/3/3 156/3/3 158/3/3
f 162/3/3 161/3/3 160/3/3
f 163/3/3 161/3/3 162/3/3
f 166/1/3 165/1/3 164/1/3
f 167/1/3 165/1/3 166/1/3
f 171/2/3 169/2/3 168/2/3
f 172/2/3 169/2/3 171/2/3
f 173/3/3 171/3/3 170/3/3
f 173/3/3 172/3/3 171/3/3
f 174/3/3 172/3/3 173/3/3
f 178/3/3 176/3/3 175/3/3
f 178/3/3 177/3/3 176/3/3
f 179/3/3 177/3/3 178/3/3
f 180/3/3 177/3/3 179/3/3
f 181/2/3 180/2/3 179/2/3
f 182/2/3 180/2/3 181/2/3
f 183/2/4 184/2/4 186/2/4
f 186/2/4 184/2/4 187/2/4
f 185/3/4 186/3/4 188/3/4
f 186/3/4 187/3/4 188/3/4
f 188/3/4 187/3/4 189/3/4
f 190/3/4 191/3/4 192/3/4
f 192/3/4 191/3/4 193/3/4
f 193/3/4 191/3/4 194/3/4
f 193/2/4 194/2/4 195/2/4
f 195/2/4 194/2/4 196/2/4
f 197/3/4 198/3/4 199/3/4
f 199/3/4 198/3/4 200/3/4
f 201/3/4 202/3/4 203/3/4
f 203/3/4 202/3/4 204/3/4
f 205/3/4 206/3/4 207/3/4
f 205/3/4 207/3/4 209/3/4
f 207/3/4 208/3/4 209/3/4
f 209/3/4 208/3/4 210/3/4
f 211/3/4 212/3/4 213/3/4
f 213/3/4 212/3/4 214/3/4
f 211/3/4 213/3/4 215/3/4
f 215/3/4 213/3/4 216/3/4
f 217/3/4 218/3/4 219/3/4
f 219/3/4 218/3/4 220/3/4
f 221/1/4 222/1/4 223/1/4
f 223/1/4 222/1/4 224/1/4
f 223/2/4 224/2/4 225/2/4
f 225/2/4 224/2/4 226/2/4
f 225/1/4 226/1/4 227/1/4
f 227/1/4 226/1/4 228/1/4
f 227/2/4 228/2/4 230/2/4
f 230/2/4 228/2/4 231/2/4
f 229/2/4 230/2/4 232/2/4
f 230/1/4 231/1/4 233/1/4
f 232/2/4 230/2/4 233/2/4
f 233/1/4 231/1/4 234/1/4
f 233/2/4 234/2/4 235/2/4
f 235/2/4 234/2/4 236/2/4
f 235/1/4 236/1/4 237/1/4
f 237/1/4 236/1/4 238/1/4
f 237/2/4 238/2/4 239/2/4
f 239/2/4 238/2/4 240/2/4
f 239/1/4 240/1/4 241/1/4
f 241/1/4 240/1/4 242/1/4
f 246/3/5 244/3/5 243/3/5
f 247/3/5 244/3/5 246/3/5
f 250/3/5 246/3/5 245/3/5
f 250/3/5 248/3/5 247/3/5
f 250/3/5 247/3/5 246/3/5
f 251/3/5 248/3/5 250/3/5
f 253/3/5 250/3/5 249/3/5
f 253/3/5 252/3/5 251/3/5
f 253/3/5 251/3/5 250/3/5
f 254/3/5 252/3/5 253/3/5
f 255/3/5 252/3/5 254/3/5
f 256/3/5 252/3/5 255/3/5
f 257/3/5 255/3/5 254/3/5
f 258/3/5 255/3/5 257/3/5
f 259/3/5 255/3/5 258/3/5
f 260/3/5 255/3/5 259/3/5
f 261/3/5 259/3/5 258/3/5
f 262/3/5 259/3/5 261/3/5
f 265/2/5 264/2/5 263/2/5
f 266/2/5 264/2/5 265/2/5
f 271/2/5 268/2/5 267/2/5
f 272/2/5 268/2/5 271/2/5
f 273/2/5 270/2/5 269/2/5
f 274/2/5 270/2/5 273/2/5
f 277/2/5 276/2/5 275/2/5
f 278/2/5 276/2/5 277/2/5
f 289/1/5 280/1/5 279/1/5
f 290/2/5 281/2/5 280/2/5
f 290/1/5 280/1/5 289/1/5
f 291/1/5 282/1/5 281/1/5
f 291/2/5 281/2/5 290/2/5
f 292/2/5 283/2/5 282/2/5
f 292/1/5 282/1/5 291/1/5
f 293/2/5 283/2/5 292/2/5
f 294/2/5 285/2/5 284/2/5
f 295/1/5 286/1/5 285/1/5
f 295/2/5 285/2/5 294/2/5
f 296/2/5 287/2/5 286/2/5
f 296/1/5 286/1/5 295/1/5
f 297/1/5 288/1/5 287/1/5
f 297/2/5 287/2/5 296/2/5
f 298/1/5 288/1/5 297/1/5
f 299/2/5 290/2/5 289/2/5
f 300/3/5 291/3/5 290/3/5
f 300/2/5 290/2/5 299/2/5
f 300/3/5 293/3/5 292/3/5
f 300/3/5 292/3/5 291/3/5
f 301/3/5 293/3/5 300/3/5
f 302/3/5 293/3/5 301/3/5
f 303/3/5 296/3/5 295/3/5
f 303/3/5 295/3/5 294/3/5
f 303/3/5 297/3/5 296/3/5
f 304/3/5 297/3/5 303/3/5
f 305/2/5 298/2/5 297/2/5
f 305/3/5 297/3/5 304/3/5
f 306/2/5 298/2/5 305/2/5
f 307/1/5 300/1/5 299/1/5
f 308/3/5 301/3/5 300/3/5
f 308/1/5 300/1/5 307/1/5
f 309/3/5 301/3/5 308/3/5
f 310/3/5 301/3/5 309/3/5
f 311/3/5 305/3/5 304/3/5
f 312/3/5 305/3/5 311/3/5
f 313/1/5 306/1/5 305/1/5
f 313/3/5 305/3/5 312/3/5
f 314/1/5 306/1/5 313/1/5
f 315/2/5 308/2/5 307/2/5
f 316/3/5 309/3/5 308/3/5
f 316/2/5 308/2/5 315/2/5
f 317/3/5 309/3/5 316/3/5
f 318/3/5 313/3/5 312/3/5
f 319/2/5 314/2/5 313/2/5
f 319/3/5 313/3/5 318/3/5
f 320/2/5 314/2/5 319/2/5
f 327/2/5 322/2/5 321/2/5
f 328/3/5 323/3/5 322/3/5
f 328/2/5 322/2/5 327/2/5
f 329/3/5 323/3/5 328/3/5
f 332/3/5 325/3/5 324/3/5
f 333/2/5 326/2/5 325/2/5
f 333/3/5 325/3/5 332/3/5
f 334/2/5 326/2/5 333/2/5
f 335/1/5 328/1/5 327/1/5
f 336/3/5 330/3/5 329/3/5
f 336/1/5 328/1/5 335/1/5
f 336/3/5 329/3/5 328/3/5
f 337/3/5 330/3/5 336/3/5
f 340/3/5 332/3/5 331/3/5
f 340/3/5 333/3/5 332/3/5
f 341/1/5 334/1/5 333/1/5
f 341/3/5 333/3/5 340/3/5
f 342/1/5 334/1/5 341/1/5
f 343/2/5 336/2/5 335/2/5
f 344/3/5 338/3/5 337/3/5
f 344/2/5 336/2/5 343/2/5
f 344/3/5 337/3/5 336/3/5
f 345/3/5 338/3/5 344/3/5
f 346/3/5 338/3/5 345/3/5
f 347/3/5 338/3/5 346/3/5
f 348/3/5 340/3/5 339/3/5
f 348/3/5 341/3/5 340/3/5
f 349/3/5 341/3/5 348/3/5
f 350/3/5 341/3/5 349/3/5
f 351/2/5 342/2/5 341/2/5
f 351/3/5 341/3/5 350/3/5
f 352/2/5 342/2/5 351/2/5
f 353/1/5 344/1/5 343/1/5
f 354/2/5 345/2/5 344/2/5
f 354/1/5 344/1/5 353/1/5
f 355/1/5 346/1/5 345/1/5
f 355/2/5 345/2/5 354/2/5
f 356/2/5 347/2/5 346/2/5
f 356/1/5 346/1/5 355/1/5
f 357/2/5 347/2/5 356/2/5
f 358/2/5 349/2/5 348/2/5
f 359/1/5 350/1/5 349/1/5
f 359/2/5 349/2/5 358/2/5
f 360/2/5 351/2/5 350/2/5
f 360/1/5 350/1/5 359/1/5
f 361/1/5 352/1/5 351/1/5
f 361/2/5 351/2/5 360/2/5
f 362/1/5 352/1/5 361/1/5
f 363/3/6 364/3/6 367/3/6
f 367/3/6 364/3/6 368/3/6
f 365/3/6 366/3/6 369/3/6
f 369/3/6 366/3/6 370/3/6
f 371/3/6 372/3/6 375/3/6
f 375/3/6 372/3/6 376/3/6
f 373/3/6 374/3/6 377/3/6
f 377/3/6 374/3/6 378/3/6
f 379/1/6 380/1/6 389/1/6
f 380/2/6 381/2/6 390/2/6
f 389/1/6 380/1/6 390/1/6
f 381/1/6 382/1/6 391/1/6
f 390/2/6 381/2/6 391/2/6
f 382/2/6 383/2/6 392/2/6
f 391/1/6 382/1/6 392/1/6
f 383/1/6 384/1/6 393/1/6
f 392/2/6 383/2/6 393/2/6
f 384/2/6 385/2/6 394/2/6
f 393/1/6 384/1/6 394/1/6
f 385/1/6 386/1/6 395/1/6
f 394/2/6 385/2/6 395/2/6
f 386/2/6 387/2/6 396/2/6
f 395/1/6 386/1/6 396/1/6
f 387/1/6 388/1/6 397/1/6
f 396/2/6 387/2/6 397/2/6
f 397/1/6 388/1/6 398/1/6
f 389/2/6 390/2/6 399/2/6
f 395/3/6 396/3/6 400/3/6
f 399/2/6 390/2/6 400/2/6
f 390/3/6 391/3/6 400/3/6
f 391/3/6 392/3/6 400/3/6
f 396/3/6 397/3/6 400/3/6
f 394/3/6 395/3/6 400/3/6
f 393/3/6 394/3/6 400/3/6
f 392/3/6 393/3/6 400/3/6
f 397/2/6 398/2/6 401/2/6
f 400/3/6 397/3/6 401/3/6
f 401/2/6 398/2/6 402/2/6
f 399/1/6 400/1/6 403/1/6
f 400/3/6 401/3/6 404/3/6
f 403/1/6 400/1/6 404/1/6
f 401/1/6 402/1/6 405/1/6
f 404/3/6 401/3/6 405/3/6
f 405/1/6 402/1/6 406/1/6
f 403/2/6 404/2/6 407/2/6
f 404/3/6 405/3/6 408/3/6
f 407/2/6 404/2/6 408/2/6
f 405/2/6 406/2/6 409/2/6
f 408/3/6 405/3/6 409/3/6
f 409/2/6 406/2/6 410/2/6
f 407/1/6 408/1/6 411/1/6
f 408/3/6 409/3/6 412/3/6
f 411/1/6 408/1/6 412/1/6
f 409/1/6 410/1/6 413/1/6
f 412/3/6 409/3/6 413/3/6
f 413/1/6 410/1/6 414/1/6
f 411/2/6 412/2/6 415/2/6
f 412/3/6 413/3/6 416/3/6
f 415/2/6 412/2/6 416/2/6
f 413/2/6 414/2/6 417/2/6
f 416/3/6 413/3/6 417/3/6
f 417/2/6 414/2/6 418/2/6
f 415/1/6 416/1/6 419/1/6
f 416/3/6 417/3/6 420/3/6
f 419/1/6 416/1/6 420/1/6
f 417/1/6 418/1/6 421/1/6
f 420/3/6 417/3/6 421/3/6
f 421/1/6 418/1/6 422/1/6
f 419/2/6 420/2/6 423/2/6
f 420/3/6 421/3/6 424/3/6
f 423/2/6 420/2/6 424/2/6
f 424/3/6 421/3/6 425/3/6
f 425/3/6 421/3/6 426/3/6
f 426/3/6 421/3/6 427/3/6
f 427/3/6 421/3/6 428/3/6
f 428/3/6 421/3/6 429/3/6
f 429/3/6 421/3/6 430/3/6
f 421/2/6 422/2/6 431/2/6
f 430/3/6 421/3/6 431/3/6
f 431/2/6 422/2/6 432/2/6
f 423/1/6 424/1/6 433/1/6
f 424/2/6 425/2/6 434/2/6
f 433/1/6 424/1/6 434/1/6
f 425/1/6 426/1/6 435/1/6
f 434/2/6 425/2/6 435/2/6
f 426/2/6 427/2/6 436/2/6
f 435/1/6 426/1/6 436/1/6
f 427/1/6 428/1/6 437/1/6
f 436/2/6 427/2/6 437/2/6
f 428/2/6 429/2/6 438/2/6
f 437/1/6 428/1/6 438/1/6
f 429/1/6 430/1/6 439/1/6
f 438/2/6 429/2/6 439/2/6
f 430/2/6 431/2/6 440/2/6
f 439/1/6 430/1/6 440/1/6
f 431/1/6 432/1/6 441/1/6
f 440/2/6 431/2/6 441/2/6
f 441/1/6 432/1/6 442/1/6
