# MagicaVoxel @ Ephtracy

# group
o 

# material
mtllib Minero-4.mtl
usemtl palette

# normals
vn -1 0 0
vn 1 0 0
vn 0 0 1
vn 0 0 -1
vn 0 -1 0
vn 0 1 0

# texcoords
vt 0.970703 0.5
vt 0.974609 0.5
vt 0.990234 0.5

# verts
v 0.5 0 -4.9
v 0.5 0 -5.2
v 0.5 0.9 -4.9
v 0.5 0.9 -5
v 0.5 0.9 -5.1
v 0.5 0.9 -5.2
v 0.5 1 -4.9
v 0.5 1 -5
v 0.5 1 -5.1
v 0.5 1 -5.2
v 0.9 0 -5
v 0.9 0 -5.1
v 0.9 0.9 -5
v 0.9 0.9 -5.1
v 0.6 0 -5
v 0.6 0 -5.1
v 0.6 0.9 -5
v 0.6 0.9 -5.1
v 1 0 -4.9
v 1 0 -5.2
v 1 0.9 -4.9
v 1 0.9 -5
v 1 0.9 -5.1
v 1 0.9 -5.2
v 1 1 -4.9
v 1 1 -5
v 1 1 -5.1
v 1 1 -5.2
v 0.5 0 -4.9
v 0.5 0.9 -4.9
v 0.5 1 -4.9
v 0.6 0.9 -4.9
v 0.6 1 -4.9
v 0.7 0.9 -4.9
v 0.7 1 -4.9
v 0.8 0.9 -4.9
v 0.8 1 -4.9
v 0.9 0.9 -4.9
v 0.9 1 -4.9
v 1 0 -4.9
v 1 0.9 -4.9
v 1 1 -4.9
v 0.6 0 -5.1
v 0.6 0.9 -5.1
v 0.9 0 -5.1
v 0.9 0.9 -5.1
v 0.6 0 -5
v 0.6 0.9 -5
v 0.9 0 -5
v 0.9 0.9 -5
v 0.5 0 -5.2
v 0.5 0.9 -5.2
v 0.5 1 -5.2
v 0.6 0.9 -5.2
v 0.6 1 -5.2
v 0.7 0.9 -5.2
v 0.7 1 -5.2
v 0.8 0.9 -5.2
v 0.8 1 -5.2
v 0.9 0.9 -5.2
v 0.9 1 -5.2
v 1 0 -5.2
v 1 0.9 -5.2
v 1 1 -5.2
v 0.5 0 -4.9
v 1 0 -4.9
v 0.6 0 -5
v 0.9 0 -5
v 0.6 0 -5.1
v 0.9 0 -5.1
v 0.5 0 -5.2
v 1 0 -5.2
v 0.6 0.9 -5
v 0.9 0.9 -5
v 0.6 0.9 -5.1
v 0.9 0.9 -5.1
v 0.5 1 -4.9
v 0.6 1 -4.9
v 0.7 1 -4.9
v 0.8 1 -4.9
v 0.9 1 -4.9
v 1 1 -4.9
v 0.5 1 -5
v 0.6 1 -5
v 0.7 1 -5
v 0.8 1 -5
v 0.9 1 -5
v 1 1 -5
v 0.5 1 -5.1
v 0.6 1 -5.1
v 0.7 1 -5.1
v 0.8 1 -5.1
v 0.9 1 -5.1
v 1 1 -5.1
v 0.5 1 -5.2
v 0.6 1 -5.2
v 0.7 1 -5.2
v 0.8 1 -5.2
v 0.9 1 -5.2
v 1 1 -5.2

# faces
f 3/3/1 2/3/1 1/3/1
f 4/3/1 2/3/1 3/3/1
f 5/3/1 2/3/1 4/3/1
f 6/3/1 2/3/1 5/3/1
f 7/1/1 4/1/1 3/1/1
f 8/2/1 5/2/1 4/2/1
f 8/1/1 4/1/1 7/1/1
f 9/1/1 6/1/1 5/1/1
f 9/2/1 5/2/1 8/2/1
f 10/1/1 6/1/1 9/1/1
f 13/3/1 12/3/1 11/3/1
f 14/3/1 12/3/1 13/3/1
f 15/3/2 16/3/2 17/3/2
f 17/3/2 16/3/2 18/3/2
f 19/3/2 20/3/2 21/3/2
f 21/3/2 20/3/2 22/3/2
f 22/3/2 20/3/2 23/3/2
f 23/3/2 20/3/2 24/3/2
f 21/1/2 22/1/2 25/1/2
f 22/2/2 23/2/2 26/2/2
f 25/1/2 22/1/2 26/1/2
f 23/1/2 24/1/2 27/1/2
f 26/2/2 23/2/2 27/2/2
f 27/1/2 24/1/2 28/1/2
f 32/3/3 30/3/3 29/3/3
f 32/1/3 31/1/3 30/1/3
f 33/1/3 31/1/3 32/1/3
f 34/3/3 32/3/3 29/3/3
f 34/2/3 33/2/3 32/2/3
f 35/2/3 33/2/3 34/2/3
f 36/3/3 34/3/3 29/3/3
f 36/1/3 35/1/3 34/1/3
f 37/1/3 35/1/3 36/1/3
f 38/3/3 36/3/3 29/3/3
f 38/2/3 37/2/3 36/2/3
f 39/2/3 37/2/3 38/2/3
f 40/3/3 38/3/3 29/3/3
f 41/1/3 39/1/3 38/1/3
f 41/3/3 38/3/3 40/3/3
f 42/1/3 39/1/3 41/1/3
f 45/3/3 44/3/3 43/3/3
f 46/3/3 44/3/3 45/3/3
f 47/3/4 48/3/4 49/3/4
f 49/3/4 48/3/4 50/3/4
f 51/3/4 52/3/4 54/3/4
f 52/1/4 53/1/4 54/1/4
f 54/1/4 53/1/4 55/1/4
f 51/3/4 54/3/4 56/3/4
f 54/2/4 55/2/4 56/2/4
f 56/2/4 55/2/4 57/2/4
f 51/3/4 56/3/4 58/3/4
f 56/1/4 57/1/4 58/1/4
f 58/1/4 57/1/4 59/1/4
f 51/3/4 58/3/4 60/3/4
f 58/2/4 59/2/4 60/2/4
f 60/2/4 59/2/4 61/2/4
f 51/3/4 60/3/4 62/3/4
f 60/1/4 61/1/4 63/1/4
f 62/3/4 60/3/4 63/3/4
f 63/1/4 61/1/4 64/1/4
f 67/3/5 66/3/5 65/3/5
f 68/3/5 66/3/5 67/3/5
f 69/3/5 67/3/5 65/3/5
f 70/3/5 66/3/5 68/3/5
f 71/3/5 69/3/5 65/3/5
f 71/3/5 70/3/5 69/3/5
f 72/3/5 66/3/5 70/3/5
f 72/3/5 70/3/5 71/3/5
f 75/2/5 74/2/5 73/2/5
f 76/2/5 74/2/5 75/2/5
f 77/1/6 78/1/6 83/1/6
f 78/2/6 79/2/6 84/2/6
f 83/1/6 78/1/6 84/1/6
f 79/1/6 80/1/6 85/1/6
f 84/2/6 79/2/6 85/2/6
f 80/2/6 81/2/6 86/2/6
f 85/1/6 80/1/6 86/1/6
f 81/1/6 82/1/6 87/1/6
f 86/2/6 81/2/6 87/2/6
f 87/1/6 82/1/6 88/1/6
f 85/2/6 86/2/6 89/2/6
f 83/2/6 84/2/6 89/2/6
f 87/2/6 88/2/6 89/2/6
f 86/2/6 87/2/6 89/2/6
f 84/2/6 85/2/6 89/2/6
f 89/2/6 88/2/6 90/2/6
f 90/2/6 88/2/6 91/2/6
f 91/2/6 88/2/6 92/2/6
f 92/2/6 88/2/6 93/2/6
f 93/2/6 88/2/6 94/2/6
f 89/1/6 90/1/6 95/1/6
f 90/2/6 91/2/6 96/2/6
f 95/1/6 90/1/6 96/1/6
f 91/1/6 92/1/6 97/1/6
f 96/2/6 91/2/6 97/2/6
f 92/2/6 93/2/6 98/2/6
f 97/1/6 92/1/6 98/1/6
f 93/1/6 94/1/6 99/1/6
f 98/2/6 93/2/6 99/2/6
f 99/1/6 94/1/6 100/1/6
